Coordinates
version=1
nRows=22
nColumns=24
inDegrees=yes

Units are S.I. units (second, meters, Newtons, ...)
Angles are in degrees.

endheader
time	pelvis_tilt	pelvis_list	pelvis_rotation	pelvis_tx	pelvis_ty	pelvis_tz	hip_flexion_r	hip_adduction_r	hip_rotation_r	knee_angle_r	ankle_angle_r	subtalar_angle_r	mtp_angle_r	hip_flexion_l	hip_adduction_l	hip_rotation_l	knee_angle_l	ankle_angle_l	subtalar_angle_l	mtp_angle_l	lumbar_extension	lumbar_bending	lumbar_rotation
      1.23216667	      1.39075562	      4.02108221	      0.14011346	      0.18337405	      1.01554260	      0.25840143	     11.86911400	     -7.13613273	     -7.70167708	    -66.09396716	    -11.11677251	    -20.22975032	      2.47671046	      5.88105684	      8.68353370	      8.85481547	    -13.07201597	      4.77231619	    -13.88113802	      1.61017543	    -15.99755789	      2.46072925	     -2.21248910
      1.23633333	      1.36982548	      3.83306614	     -0.05343682	      0.18839387	      1.01640597	      0.25839942	     12.44068799	     -6.86793053	     -7.55937306	    -65.75036993	    -10.21363097	    -20.17334619	      2.34317877	      5.38299319	      8.45657100	      8.77306809	    -12.64066208	      4.80330187	    -13.91641176	      1.55658800	    -15.97782855	      2.73129616	     -2.30039640
      1.24050000	      1.37570425	      3.64777156	     -0.24733010	      0.19342246	      1.01729726	      0.25841438	     12.96080441	     -6.59336217	     -7.41615496	    -65.32855307	     -9.31964013	    -20.11064346	      2.22715210	      4.84771427	      8.23207031	      8.67965897	    -12.19280785	      4.82362787	    -13.94392993	      1.50289196	    -15.98908397	      2.99704552	     -2.38734487
      1.24466667	      1.38179025	      3.47343578	     -0.41988075	      0.19843362	      1.01814624	      0.25838893	     13.46240812	     -6.33426877	     -7.29581050	    -64.85081211	     -8.38605259	    -20.02147044	      2.01824347	      4.31032740	      8.02645115	      8.62041145	    -11.74287631	      4.83341077	    -13.98892335	      1.40185922	    -16.00729906	      3.26053637	     -2.49723886
      1.24883333	      1.33293252	      3.24378154	     -0.60236036	      0.20346479	      1.01893833	      0.25843167	     13.99466725	     -5.98153311	     -7.14600104	    -64.26510797	     -7.59367319	    -20.04175788	      1.96735103	      3.84474141	      7.75535537	      8.49959192	    -11.32341326	      4.85234573	    -14.00085343	      1.36817621	    -15.95587995	      3.56933496	     -2.54183179
      1.25300000	      1.32201975	      3.02919821	     -0.77353482	      0.20848371	      1.01975362	      0.25846275	     14.46452154	     -5.64717111	     -7.00915164	    -63.61839126	     -6.75348767	    -19.98193939	      1.91815834	      3.32939496	      7.50233517	      8.38763747	    -10.88301958	      4.87040273	    -13.99896903	      1.33133515	    -15.95419474	      3.87189860	     -2.61405328
      1.25716667	      1.33861084	      2.83152570	     -0.94042048	      0.21352521	      1.02056059	      0.25847226	     14.88421859	     -5.33742357	     -6.87719543	    -62.91347532	     -5.90903731	    -19.78580079	      1.82705962	      2.76558333	      7.27269982	      8.31393721	    -10.40875964	      4.90388285	    -13.99856433	      1.26689813	    -15.96788009	      4.14617159	     -2.72728653
      1.26133333	      1.33230394	      2.63164698	     -1.09934025	      0.21854785	      1.02130513	      0.25849452	     15.31093150	     -5.01397061	     -6.74355658	    -62.14702065	     -5.10091917	    -19.68863040	      1.72469165	      2.23541949	      7.04111747	      8.22620338	     -9.95118392	      4.91657074	    -14.00363343	      1.19108101	    -15.97165851	      4.43636816	     -2.82086738
      1.26550000	      1.32296764	      2.42284905	     -1.24234417	      0.22356005	      1.02201734	      0.25851945	     15.71473695	     -4.67397448	     -6.61608042	    -61.30980078	     -4.29283338	    -19.59876149	      1.57318071	      1.71761069	      6.80129079	      8.14048275	     -9.51434006	      4.92577132	    -14.00099544	      1.07781006	    -15.98102260	      4.71913419	     -2.92724006
      1.26966667	      1.30525021	      2.21893714	     -1.38956563	      0.22859359	      1.02267743	      0.25854747	     16.10827886	     -4.33617651	     -6.48262872	    -60.41306824	     -3.53946905	    -19.50495398	      1.37926805	      1.20679049	      6.56748746	      8.02405315	     -9.07367236	      4.94341110	    -13.99619074	      0.92788099	    -15.95910669	      5.00850125	     -3.02074621
      1.27383333	      1.22332029	      2.01130121	     -1.53896824	      0.23359502	      1.02321057	      0.25859900	     16.56130635	     -3.97634786	     -6.32367545	    -59.46437912	     -2.87340963	    -19.49802903	      1.34964327	      0.77486998	      6.32893812	      7.90380718	     -8.64933179	      4.95904693	    -13.97543405	      0.89475871	    -15.88795854	      5.30264334	     -3.05245075
      1.27800000	      1.24899420	      1.78981562	     -1.66825842	      0.23863127	      1.02388051	      0.25864055	     16.85247188	     -3.61069545	     -6.18865178	    -58.42193281	     -2.20667811	    -19.32582947	      1.25334813	      0.21782775	      6.07827268	      7.79936463	     -8.21754414	      4.99675534	    -13.92593331	      0.80532572	    -15.92334748	      5.59475944	     -3.17067177
      1.28216667	      1.21161941	      1.58471551	     -1.79832662	      0.24365848	      1.02438664	      0.25868144	     17.20559234	     -3.25755475	     -6.04417982	    -57.34929179	     -1.59261355	    -19.23738514	      1.16894309	     -0.26192965	      5.84607230	      7.67358121	     -7.80009762	      5.02828996	    -13.89073136	      0.72289684	    -15.88629620	      5.88238195	     -3.25318237
      1.28633333	      1.14563278	      1.38317963	     -1.91757010	      0.24867143	      1.02481960	      0.25872797	     17.56897420	     -2.90013508	     -5.88987380	    -56.22125390	     -1.01049666	    -19.18054381	      1.13042989	     -0.69294094	      5.61835753	      7.54026056	     -7.42028857	      5.03970503	    -13.86275296	      0.67709126	    -15.82320907	      6.14977925	     -3.31181516
      1.29050000	      1.16015588	      1.19619163	     -2.03607984	      0.25371422	      1.02530510	      0.25876098	     17.82386740	     -2.57110559	     -5.74773279	    -55.04072741	     -0.49225665	    -19.06073981	      1.05601853	     -1.23815704	      5.40984910	      7.42874142	     -6.98613980	      5.09270563	    -13.79541364	      0.59680348	    -15.84941358	      6.42520397	     -3.43110586
      1.29466667	      1.12419277	      1.02208324	     -2.14303977	      0.25872173	      1.02566250	      0.25880620	     18.12011796	     -2.24566121	     -5.58884561	    -53.82162860	      0.00702595	    -18.99162434	      0.95522980	     -1.70508070	      5.21464612	      7.31257421	     -6.59844941	      5.12595968	    -13.73108594	      0.48606870	    -15.83348441	      6.66981784	     -3.54617476
      1.29883333	      1.09617951	      0.85214416	     -2.24689460	      0.26375700	      1.02598764	      0.25883710	     18.38512386	     -1.93017560	     -5.43496233	    -52.54799406	      0.42185669	    -18.90596043	      0.87983271	     -2.18332367	      5.02671274	      7.18920380	     -6.20759675	      5.16756079	    -13.67584184	      0.39724258	    -15.80492800	      6.91478721	     -3.63823222
      1.30300000	      1.06938429	      0.68446419	     -2.34194252	      0.26879919	      1.02626764	      0.25886616	     18.62711913	     -1.61850717	     -5.28368617	    -51.22475173	      0.79493384	    -18.83540169	      0.81410303	     -2.66065982	      4.84180877	      7.06395619	     -5.82212686	      5.20827695	    -13.61647452	      0.31499980	    -15.77890199	      7.15585465	     -3.73802328
      1.30716667	      1.04668640	      0.53555741	     -2.43010585	      0.27383678	      1.02649543	      0.25889226	     18.84838692	     -1.32814649	     -5.12690191	    -49.86266050	      1.12155969	    -18.77065947	      0.75139069	     -3.13735108	      4.67901862	      6.94478008	     -5.44686934	      5.24916140	    -13.54705247	      0.23246267	    -15.76548486	      7.37714773	     -3.84845094
      1.31133333	      0.97113467	      0.40654962	     -2.51308397	      0.27885774	      1.02657484	      0.25892067	     19.11820425	     -1.05724347	     -4.95979097	    -48.47816780	      1.44569458	    -18.68887802	      0.72343946	     -3.53879225	      4.53765431	      6.82051599	     -5.10617160	      5.26595789	    -13.50241257	      0.18847809	    -15.69403266	      7.56950123	     -3.92413328
      1.31550000	      1.00516307	      0.27369171	     -2.58691512	      0.28391041	      1.02678191	      0.25893523	     19.23402236	     -0.79323404	     -4.80660594	    -47.01892969	      1.64258056	    -18.65330233	      0.66325320	     -4.08417237	      4.39628754	      6.72563435	     -4.71706122	      5.32626241	    -13.41311695	      0.10268726	    -15.74031949	      7.77977520	     -4.08615911
      1.31966667	      0.96183506	      0.16189323	     -2.65269428	      0.28896460	      1.02681834	      0.25894501	     19.42240925	     -0.55230333	     -4.65157064	    -45.53758957	      1.82910741	    -18.59849813	      0.61034457	     -4.52652885	      4.27669924	      6.61662919	     -4.36654514	      5.36659949	    -13.34962699	      0.02082684	    -15.68905068	      7.95638874	     -4.21169651
